<mxfile host="app.diagrams.net" modified="2022-11-18T02:28:34.201Z" agent="5.0 (Macintosh; Intel Mac OS X 10_15_7) AppleWebKit/537.36 (KHTML, like Gecko) Chrome/107.0.0.0 Safari/537.36" etag="PaalzXADN4llE0s5MGLk" version="20.5.3" type="github">
  <diagram id="LliGrTo6IxOCmECgdEKM" name="第 1 页">
    <mxGraphModel dx="860" dy="472" grid="1" gridSize="10" guides="1" tooltips="1" connect="1" arrows="1" fold="1" page="0" pageScale="1" pageWidth="827" pageHeight="1169" background="#F4F1DE" math="0" shadow="0">
      <root>
        <mxCell id="0" />
        <mxCell id="1" parent="0" />
        <mxCell id="y-x1a5SyWCCNWOdujIV2-36" value="ConcreateHandler" style="swimlane;fontStyle=1;align=center;verticalAlign=top;childLayout=stackLayout;horizontal=1;startSize=30;horizontalStack=0;resizeParent=1;resizeParentMax=0;resizeLast=0;collapsible=1;marginBottom=0;fontFamily=Times New Roman;fontSize=16;rounded=0;fillColor=#F2CC8F;strokeColor=#E07A5F;fontColor=none;noLabel=1;" vertex="1" parent="1">
          <mxGeometry x="340" y="972" width="200" height="116" as="geometry" />
        </mxCell>
        <mxCell id="y-x1a5SyWCCNWOdujIV2-40" value="func setNext(h: Handler)" style="text;strokeColor=none;fillColor=none;align=left;verticalAlign=top;spacingLeft=4;spacingRight=4;overflow=hidden;rotatable=0;points=[[0,0.5],[1,0.5]];portConstraint=eastwest;fontFamily=Times New Roman;fontSize=16;rounded=0;fontColor=none;noLabel=1;" vertex="1" parent="y-x1a5SyWCCNWOdujIV2-36">
          <mxGeometry y="30" width="200" height="30" as="geometry" />
        </mxCell>
        <mxCell id="y-x1a5SyWCCNWOdujIV2-37" value="next: Handler" style="text;strokeColor=none;fillColor=none;align=left;verticalAlign=top;spacingLeft=4;spacingRight=4;overflow=hidden;rotatable=0;points=[[0,0.5],[1,0.5]];portConstraint=eastwest;fontFamily=Times New Roman;fontSize=16;rounded=0;fontColor=none;noLabel=1;" vertex="1" parent="y-x1a5SyWCCNWOdujIV2-36">
          <mxGeometry y="60" width="200" height="26" as="geometry" />
        </mxCell>
        <mxCell id="y-x1a5SyWCCNWOdujIV2-39" value="func handler(request)" style="text;strokeColor=none;fillColor=none;align=left;verticalAlign=top;spacingLeft=4;spacingRight=4;overflow=hidden;rotatable=0;points=[[0,0.5],[1,0.5]];portConstraint=eastwest;fontFamily=Times New Roman;fontSize=16;rounded=0;fontColor=none;noLabel=1;" vertex="1" parent="y-x1a5SyWCCNWOdujIV2-36">
          <mxGeometry y="86" width="200" height="30" as="geometry" />
        </mxCell>
        <mxCell id="As4aNOafPKZ8VDamvQL3-1" value="中介者模式结构：" style="text;html=1;strokeColor=none;fillColor=none;align=center;verticalAlign=middle;whiteSpace=wrap;rounded=0;fontFamily=Times New Roman;fontSize=18;fontColor=#393C56;" parent="1" vertex="1">
          <mxGeometry x="21" y="54" width="159" height="33" as="geometry" />
        </mxCell>
        <mxCell id="KlUVC-nTQkEUZtXj6v6p-1" value="Mediator&lt;Interface&gt;" style="swimlane;fontStyle=1;align=center;verticalAlign=top;childLayout=stackLayout;horizontal=1;startSize=30;horizontalStack=0;resizeParent=1;resizeParentMax=0;resizeLast=0;collapsible=1;marginBottom=0;fontFamily=Times New Roman;fontSize=16;rounded=0;fillColor=#F2CC8F;strokeColor=#E07A5F;fontColor=#393C56;" parent="1" vertex="1">
          <mxGeometry x="331" y="110" width="200" height="60" as="geometry" />
        </mxCell>
        <mxCell id="KlUVC-nTQkEUZtXj6v6p-4" value="func notify(sender)" style="text;strokeColor=none;fillColor=none;align=left;verticalAlign=top;spacingLeft=4;spacingRight=4;overflow=hidden;rotatable=0;points=[[0,0.5],[1,0.5]];portConstraint=eastwest;fontFamily=Times New Roman;fontSize=16;rounded=0;fontColor=#393C56;" parent="KlUVC-nTQkEUZtXj6v6p-1" vertex="1">
          <mxGeometry y="30" width="200" height="30" as="geometry" />
        </mxCell>
        <mxCell id="KlUVC-nTQkEUZtXj6v6p-5" value="ComponentA" style="swimlane;fontStyle=1;align=center;verticalAlign=top;childLayout=stackLayout;horizontal=1;startSize=30;horizontalStack=0;resizeParent=1;resizeParentMax=0;resizeLast=0;collapsible=1;marginBottom=0;fontFamily=Times New Roman;fontSize=16;rounded=0;fillColor=#F2CC8F;strokeColor=#E07A5F;fontColor=#393C56;" parent="1" vertex="1">
          <mxGeometry x="70" y="110" width="200" height="98" as="geometry" />
        </mxCell>
        <mxCell id="KlUVC-nTQkEUZtXj6v6p-6" value="m: Mediator" style="text;strokeColor=none;fillColor=none;align=left;verticalAlign=top;spacingLeft=4;spacingRight=4;overflow=hidden;rotatable=0;points=[[0,0.5],[1,0.5]];portConstraint=eastwest;fontFamily=Times New Roman;fontSize=16;rounded=0;fontColor=#393C56;" parent="KlUVC-nTQkEUZtXj6v6p-5" vertex="1">
          <mxGeometry y="30" width="200" height="30" as="geometry" />
        </mxCell>
        <mxCell id="KlUVC-nTQkEUZtXj6v6p-7" value="" style="line;strokeWidth=1;fillColor=none;align=left;verticalAlign=middle;spacingTop=-1;spacingLeft=3;spacingRight=3;rotatable=0;labelPosition=right;points=[];portConstraint=eastwest;strokeColor=#E07A5F;fontFamily=Times New Roman;fontSize=16;rounded=0;fontColor=#393C56;labelBackgroundColor=#F4F1DE;" parent="KlUVC-nTQkEUZtXj6v6p-5" vertex="1">
          <mxGeometry y="60" width="200" height="8" as="geometry" />
        </mxCell>
        <mxCell id="KlUVC-nTQkEUZtXj6v6p-8" value="func operationA()" style="text;strokeColor=none;fillColor=none;align=left;verticalAlign=top;spacingLeft=4;spacingRight=4;overflow=hidden;rotatable=0;points=[[0,0.5],[1,0.5]];portConstraint=eastwest;fontFamily=Times New Roman;fontSize=16;rounded=0;fontColor=#393C56;" parent="KlUVC-nTQkEUZtXj6v6p-5" vertex="1">
          <mxGeometry y="68" width="200" height="30" as="geometry" />
        </mxCell>
        <mxCell id="xFCIwbEzfBcp8esczOYy-46" style="edgeStyle=entityRelationEdgeStyle;sketch=0;orthogonalLoop=1;jettySize=auto;html=1;entryX=1.005;entryY=0;entryDx=0;entryDy=0;entryPerimeter=0;shadow=0;strokeColor=#E07A5F;fontColor=#393C56;endArrow=open;endFill=0;startSize=10;fillColor=#F2CC8F;elbow=vertical;strokeWidth=2;" parent="1" source="OagiuF5iZt7tphXW1LkW-1" target="KlUVC-nTQkEUZtXj6v6p-4" edge="1">
          <mxGeometry relative="1" as="geometry" />
        </mxCell>
        <mxCell id="OagiuF5iZt7tphXW1LkW-1" value="ComponentB" style="swimlane;fontStyle=1;align=center;verticalAlign=top;childLayout=stackLayout;horizontal=1;startSize=30;horizontalStack=0;resizeParent=1;resizeParentMax=0;resizeLast=0;collapsible=1;marginBottom=0;fontFamily=Times New Roman;fontSize=16;rounded=0;fillColor=#F2CC8F;strokeColor=#E07A5F;fontColor=#393C56;" parent="1" vertex="1">
          <mxGeometry x="600" y="110" width="200" height="98" as="geometry" />
        </mxCell>
        <mxCell id="OagiuF5iZt7tphXW1LkW-2" value="m: Mediator" style="text;strokeColor=none;fillColor=none;align=left;verticalAlign=top;spacingLeft=4;spacingRight=4;overflow=hidden;rotatable=0;points=[[0,0.5],[1,0.5]];portConstraint=eastwest;fontFamily=Times New Roman;fontSize=16;rounded=0;fontColor=#393C56;" parent="OagiuF5iZt7tphXW1LkW-1" vertex="1">
          <mxGeometry y="30" width="200" height="30" as="geometry" />
        </mxCell>
        <mxCell id="OagiuF5iZt7tphXW1LkW-3" value="" style="line;strokeWidth=1;fillColor=none;align=left;verticalAlign=middle;spacingTop=-1;spacingLeft=3;spacingRight=3;rotatable=0;labelPosition=right;points=[];portConstraint=eastwest;strokeColor=#E07A5F;fontFamily=Times New Roman;fontSize=16;rounded=0;fontColor=#393C56;labelBackgroundColor=#F4F1DE;" parent="OagiuF5iZt7tphXW1LkW-1" vertex="1">
          <mxGeometry y="60" width="200" height="8" as="geometry" />
        </mxCell>
        <mxCell id="OagiuF5iZt7tphXW1LkW-4" value="func operationB()" style="text;strokeColor=none;fillColor=none;align=left;verticalAlign=top;spacingLeft=4;spacingRight=4;overflow=hidden;rotatable=0;points=[[0,0.5],[1,0.5]];portConstraint=eastwest;fontFamily=Times New Roman;fontSize=16;rounded=0;fontColor=#393C56;" parent="OagiuF5iZt7tphXW1LkW-1" vertex="1">
          <mxGeometry y="68" width="200" height="30" as="geometry" />
        </mxCell>
        <mxCell id="OagiuF5iZt7tphXW1LkW-5" value="ComponentC" style="swimlane;fontStyle=1;align=center;verticalAlign=top;childLayout=stackLayout;horizontal=1;startSize=30;horizontalStack=0;resizeParent=1;resizeParentMax=0;resizeLast=0;collapsible=1;marginBottom=0;fontFamily=Times New Roman;fontSize=16;rounded=0;fillColor=#F2CC8F;strokeColor=#E07A5F;fontColor=#393C56;" parent="1" vertex="1">
          <mxGeometry x="70" y="240" width="200" height="98" as="geometry" />
        </mxCell>
        <mxCell id="OagiuF5iZt7tphXW1LkW-6" value="m: Mediator" style="text;strokeColor=none;fillColor=none;align=left;verticalAlign=top;spacingLeft=4;spacingRight=4;overflow=hidden;rotatable=0;points=[[0,0.5],[1,0.5]];portConstraint=eastwest;fontFamily=Times New Roman;fontSize=16;rounded=0;fontColor=#393C56;" parent="OagiuF5iZt7tphXW1LkW-5" vertex="1">
          <mxGeometry y="30" width="200" height="30" as="geometry" />
        </mxCell>
        <mxCell id="OagiuF5iZt7tphXW1LkW-7" value="" style="line;strokeWidth=1;fillColor=none;align=left;verticalAlign=middle;spacingTop=-1;spacingLeft=3;spacingRight=3;rotatable=0;labelPosition=right;points=[];portConstraint=eastwest;strokeColor=#E07A5F;fontFamily=Times New Roman;fontSize=16;rounded=0;fontColor=#393C56;labelBackgroundColor=#F4F1DE;" parent="OagiuF5iZt7tphXW1LkW-5" vertex="1">
          <mxGeometry y="60" width="200" height="8" as="geometry" />
        </mxCell>
        <mxCell id="OagiuF5iZt7tphXW1LkW-8" value="func operationC()" style="text;strokeColor=none;fillColor=none;align=left;verticalAlign=top;spacingLeft=4;spacingRight=4;overflow=hidden;rotatable=0;points=[[0,0.5],[1,0.5]];portConstraint=eastwest;fontFamily=Times New Roman;fontSize=16;rounded=0;fontColor=#393C56;" parent="OagiuF5iZt7tphXW1LkW-5" vertex="1">
          <mxGeometry y="68" width="200" height="30" as="geometry" />
        </mxCell>
        <mxCell id="OagiuF5iZt7tphXW1LkW-9" value="ComponentD" style="swimlane;fontStyle=1;align=center;verticalAlign=top;childLayout=stackLayout;horizontal=1;startSize=30;horizontalStack=0;resizeParent=1;resizeParentMax=0;resizeLast=0;collapsible=1;marginBottom=0;fontFamily=Times New Roman;fontSize=16;rounded=0;fillColor=#F2CC8F;strokeColor=#E07A5F;fontColor=#393C56;" parent="1" vertex="1">
          <mxGeometry x="600" y="240" width="200" height="98" as="geometry" />
        </mxCell>
        <mxCell id="OagiuF5iZt7tphXW1LkW-10" value="m: Mediator" style="text;strokeColor=none;fillColor=none;align=left;verticalAlign=top;spacingLeft=4;spacingRight=4;overflow=hidden;rotatable=0;points=[[0,0.5],[1,0.5]];portConstraint=eastwest;fontFamily=Times New Roman;fontSize=16;rounded=0;fontColor=#393C56;" parent="OagiuF5iZt7tphXW1LkW-9" vertex="1">
          <mxGeometry y="30" width="200" height="30" as="geometry" />
        </mxCell>
        <mxCell id="OagiuF5iZt7tphXW1LkW-11" value="" style="line;strokeWidth=1;fillColor=none;align=left;verticalAlign=middle;spacingTop=-1;spacingLeft=3;spacingRight=3;rotatable=0;labelPosition=right;points=[];portConstraint=eastwest;strokeColor=#E07A5F;fontFamily=Times New Roman;fontSize=16;rounded=0;fontColor=#393C56;labelBackgroundColor=#F4F1DE;" parent="OagiuF5iZt7tphXW1LkW-9" vertex="1">
          <mxGeometry y="60" width="200" height="8" as="geometry" />
        </mxCell>
        <mxCell id="OagiuF5iZt7tphXW1LkW-12" value="func operationD()" style="text;strokeColor=none;fillColor=none;align=left;verticalAlign=top;spacingLeft=4;spacingRight=4;overflow=hidden;rotatable=0;points=[[0,0.5],[1,0.5]];portConstraint=eastwest;fontFamily=Times New Roman;fontSize=16;rounded=0;fontColor=#393C56;" parent="OagiuF5iZt7tphXW1LkW-9" vertex="1">
          <mxGeometry y="68" width="200" height="30" as="geometry" />
        </mxCell>
        <mxCell id="xFCIwbEzfBcp8esczOYy-49" style="edgeStyle=elbowEdgeStyle;rounded=1;sketch=0;orthogonalLoop=1;jettySize=auto;html=1;entryX=0.471;entryY=1.063;entryDx=0;entryDy=0;entryPerimeter=0;shadow=0;strokeColor=#E07A5F;fontColor=#393C56;endArrow=block;endFill=0;startSize=10;fillColor=#F2CC8F;strokeWidth=2;" parent="1" source="xFCIwbEzfBcp8esczOYy-5" target="KlUVC-nTQkEUZtXj6v6p-4" edge="1">
          <mxGeometry relative="1" as="geometry" />
        </mxCell>
        <mxCell id="xFCIwbEzfBcp8esczOYy-50" style="edgeStyle=elbowEdgeStyle;rounded=1;sketch=0;orthogonalLoop=1;jettySize=auto;html=1;entryX=0;entryY=0.5;entryDx=0;entryDy=0;shadow=0;strokeColor=#E07A5F;strokeWidth=2;fontColor=#393C56;endArrow=open;endFill=0;startSize=10;fillColor=#F2CC8F;startArrow=diamondThin;startFill=1;" parent="1" target="KlUVC-nTQkEUZtXj6v6p-6" edge="1">
          <mxGeometry relative="1" as="geometry">
            <mxPoint x="330" y="378" as="sourcePoint" />
            <Array as="points">
              <mxPoint x="30" y="280" />
            </Array>
          </mxGeometry>
        </mxCell>
        <mxCell id="xFCIwbEzfBcp8esczOYy-53" style="edgeStyle=elbowEdgeStyle;rounded=1;sketch=0;orthogonalLoop=1;jettySize=auto;html=1;entryX=1.016;entryY=0.824;entryDx=0;entryDy=0;entryPerimeter=0;shadow=0;strokeColor=#E07A5F;strokeWidth=2;fontColor=#393C56;endArrow=open;endFill=0;startSize=10;fillColor=#F2CC8F;exitX=0.996;exitY=0.479;exitDx=0;exitDy=0;exitPerimeter=0;startArrow=diamondThin;startFill=1;" parent="1" source="xFCIwbEzfBcp8esczOYy-7" target="OagiuF5iZt7tphXW1LkW-2" edge="1">
          <mxGeometry relative="1" as="geometry">
            <mxPoint x="530" y="380" as="sourcePoint" />
            <Array as="points">
              <mxPoint x="840" y="230" />
              <mxPoint x="840" y="300" />
            </Array>
          </mxGeometry>
        </mxCell>
        <mxCell id="xFCIwbEzfBcp8esczOYy-54" style="edgeStyle=elbowEdgeStyle;rounded=1;sketch=0;orthogonalLoop=1;jettySize=auto;html=1;entryX=1;entryY=0.5;entryDx=0;entryDy=0;shadow=0;strokeColor=#E07A5F;strokeWidth=2;fontColor=#393C56;endArrow=open;endFill=0;startSize=10;fillColor=#F2CC8F;exitX=0.999;exitY=0.481;exitDx=0;exitDy=0;exitPerimeter=0;startArrow=diamondThin;startFill=1;" parent="1" source="xFCIwbEzfBcp8esczOYy-7" target="OagiuF5iZt7tphXW1LkW-10" edge="1">
          <mxGeometry relative="1" as="geometry">
            <Array as="points">
              <mxPoint x="840" y="350" />
            </Array>
          </mxGeometry>
        </mxCell>
        <mxCell id="xFCIwbEzfBcp8esczOYy-5" value="ConcreateMediator" style="swimlane;fontStyle=1;align=center;verticalAlign=top;childLayout=stackLayout;horizontal=1;startSize=30;horizontalStack=0;resizeParent=1;resizeParentMax=0;resizeLast=0;collapsible=1;marginBottom=0;fontFamily=Times New Roman;fontSize=16;rounded=0;fillColor=#F2CC8F;strokeColor=#E07A5F;fontColor=#393C56;" parent="1" vertex="1">
          <mxGeometry x="330" y="240" width="200" height="292" as="geometry" />
        </mxCell>
        <mxCell id="xFCIwbEzfBcp8esczOYy-6" value="componentA: ComponentA" style="text;strokeColor=none;fillColor=none;align=left;verticalAlign=top;spacingLeft=4;spacingRight=4;overflow=hidden;rotatable=0;points=[[0,0.5],[1,0.5]];portConstraint=eastwest;fontFamily=Times New Roman;fontSize=16;rounded=0;fontColor=#393C56;" parent="xFCIwbEzfBcp8esczOYy-5" vertex="1">
          <mxGeometry y="30" width="200" height="26" as="geometry" />
        </mxCell>
        <mxCell id="xFCIwbEzfBcp8esczOYy-40" value="componentB: ComponentB" style="text;strokeColor=none;fillColor=none;align=left;verticalAlign=top;spacingLeft=4;spacingRight=4;overflow=hidden;rotatable=0;points=[[0,0.5],[1,0.5]];portConstraint=eastwest;fontFamily=Times New Roman;fontSize=16;rounded=0;fontColor=#393C56;" parent="xFCIwbEzfBcp8esczOYy-5" vertex="1">
          <mxGeometry y="56" width="200" height="26" as="geometry" />
        </mxCell>
        <mxCell id="xFCIwbEzfBcp8esczOYy-41" value="componentC: ComponentC" style="text;strokeColor=none;fillColor=none;align=left;verticalAlign=top;spacingLeft=4;spacingRight=4;overflow=hidden;rotatable=0;points=[[0,0.5],[1,0.5]];portConstraint=eastwest;fontFamily=Times New Roman;fontSize=16;rounded=0;fontColor=#393C56;" parent="xFCIwbEzfBcp8esczOYy-5" vertex="1">
          <mxGeometry y="82" width="200" height="26" as="geometry" />
        </mxCell>
        <mxCell id="xFCIwbEzfBcp8esczOYy-39" value="componentD: ComponentD" style="text;strokeColor=none;fillColor=none;align=left;verticalAlign=top;spacingLeft=4;spacingRight=4;overflow=hidden;rotatable=0;points=[[0,0.5],[1,0.5]];portConstraint=eastwest;fontFamily=Times New Roman;fontSize=16;rounded=0;fontColor=#393C56;" parent="xFCIwbEzfBcp8esczOYy-5" vertex="1">
          <mxGeometry y="108" width="200" height="26" as="geometry" />
        </mxCell>
        <mxCell id="xFCIwbEzfBcp8esczOYy-7" value="" style="line;strokeWidth=1;fillColor=none;align=left;verticalAlign=middle;spacingTop=-1;spacingLeft=3;spacingRight=3;rotatable=0;labelPosition=right;points=[];portConstraint=eastwest;strokeColor=#E07A5F;fontFamily=Times New Roman;fontSize=16;rounded=0;fontColor=#393C56;labelBackgroundColor=#F4F1DE;" parent="xFCIwbEzfBcp8esczOYy-5" vertex="1">
          <mxGeometry y="134" width="200" height="8" as="geometry" />
        </mxCell>
        <mxCell id="xFCIwbEzfBcp8esczOYy-8" value="func notify(sender)" style="text;strokeColor=none;fillColor=none;align=left;verticalAlign=top;spacingLeft=4;spacingRight=4;overflow=hidden;rotatable=0;points=[[0,0.5],[1,0.5]];portConstraint=eastwest;fontFamily=Times New Roman;fontSize=16;rounded=0;fontColor=#393C56;" parent="xFCIwbEzfBcp8esczOYy-5" vertex="1">
          <mxGeometry y="142" width="200" height="30" as="geometry" />
        </mxCell>
        <mxCell id="xFCIwbEzfBcp8esczOYy-38" value="func reactOnA()" style="text;strokeColor=none;fillColor=none;align=left;verticalAlign=top;spacingLeft=4;spacingRight=4;overflow=hidden;rotatable=0;points=[[0,0.5],[1,0.5]];portConstraint=eastwest;fontFamily=Times New Roman;fontSize=16;rounded=0;fontColor=#393C56;" parent="xFCIwbEzfBcp8esczOYy-5" vertex="1">
          <mxGeometry y="172" width="200" height="30" as="geometry" />
        </mxCell>
        <mxCell id="xFCIwbEzfBcp8esczOYy-42" value="func reactOnB()" style="text;strokeColor=none;fillColor=none;align=left;verticalAlign=top;spacingLeft=4;spacingRight=4;overflow=hidden;rotatable=0;points=[[0,0.5],[1,0.5]];portConstraint=eastwest;fontFamily=Times New Roman;fontSize=16;rounded=0;fontColor=#393C56;" parent="xFCIwbEzfBcp8esczOYy-5" vertex="1">
          <mxGeometry y="202" width="200" height="30" as="geometry" />
        </mxCell>
        <mxCell id="xFCIwbEzfBcp8esczOYy-43" value="func reactOnC()" style="text;strokeColor=none;fillColor=none;align=left;verticalAlign=top;spacingLeft=4;spacingRight=4;overflow=hidden;rotatable=0;points=[[0,0.5],[1,0.5]];portConstraint=eastwest;fontFamily=Times New Roman;fontSize=16;rounded=0;fontColor=#393C56;" parent="xFCIwbEzfBcp8esczOYy-5" vertex="1">
          <mxGeometry y="232" width="200" height="30" as="geometry" />
        </mxCell>
        <mxCell id="xFCIwbEzfBcp8esczOYy-44" value="func reactOnD()" style="text;strokeColor=none;fillColor=none;align=left;verticalAlign=top;spacingLeft=4;spacingRight=4;overflow=hidden;rotatable=0;points=[[0,0.5],[1,0.5]];portConstraint=eastwest;fontFamily=Times New Roman;fontSize=16;rounded=0;fontColor=#393C56;" parent="xFCIwbEzfBcp8esczOYy-5" vertex="1">
          <mxGeometry y="262" width="200" height="30" as="geometry" />
        </mxCell>
        <mxCell id="xFCIwbEzfBcp8esczOYy-45" style="edgeStyle=elbowEdgeStyle;rounded=1;orthogonalLoop=1;jettySize=auto;html=1;strokeColor=#E07A5F;fontColor=#393C56;fillColor=#F2CC8F;endArrow=open;endFill=0;startSize=10;shadow=0;sketch=0;strokeWidth=2;" parent="1" source="KlUVC-nTQkEUZtXj6v6p-6" edge="1">
          <mxGeometry relative="1" as="geometry">
            <mxPoint x="330" y="140" as="targetPoint" />
          </mxGeometry>
        </mxCell>
        <mxCell id="xFCIwbEzfBcp8esczOYy-47" style="edgeStyle=entityRelationEdgeStyle;sketch=0;orthogonalLoop=1;jettySize=auto;html=1;exitX=1;exitY=0.5;exitDx=0;exitDy=0;shadow=0;strokeColor=#E07A5F;fontColor=#393C56;endArrow=open;endFill=0;startSize=10;fillColor=#F2CC8F;strokeWidth=2;" parent="1" source="OagiuF5iZt7tphXW1LkW-6" edge="1">
          <mxGeometry relative="1" as="geometry">
            <mxPoint x="330" y="140" as="targetPoint" />
          </mxGeometry>
        </mxCell>
        <mxCell id="xFCIwbEzfBcp8esczOYy-48" style="edgeStyle=elbowEdgeStyle;sketch=0;orthogonalLoop=1;jettySize=auto;html=1;exitX=0;exitY=0.5;exitDx=0;exitDy=0;shadow=0;strokeColor=#E07A5F;fontColor=#393C56;endArrow=open;endFill=0;startSize=10;fillColor=#F2CC8F;strokeWidth=2;" parent="1" source="OagiuF5iZt7tphXW1LkW-10" edge="1">
          <mxGeometry relative="1" as="geometry">
            <mxPoint x="530" y="140" as="targetPoint" />
          </mxGeometry>
        </mxCell>
        <mxCell id="xFCIwbEzfBcp8esczOYy-51" style="edgeStyle=elbowEdgeStyle;rounded=1;sketch=0;orthogonalLoop=1;jettySize=auto;html=1;entryX=0;entryY=0.5;entryDx=0;entryDy=0;shadow=0;strokeColor=#E07A5F;strokeWidth=2;fontColor=#393C56;endArrow=open;endFill=0;startSize=10;fillColor=#F2CC8F;startArrow=diamondThin;startFill=1;" parent="1" source="xFCIwbEzfBcp8esczOYy-7" target="OagiuF5iZt7tphXW1LkW-6" edge="1">
          <mxGeometry relative="1" as="geometry">
            <Array as="points">
              <mxPoint x="30" y="340" />
            </Array>
          </mxGeometry>
        </mxCell>
        <mxCell id="g1SRzkxm-KbwQc-2ITOF-1" value="责任链模式结构：" style="text;html=1;strokeColor=none;fillColor=none;align=center;verticalAlign=middle;whiteSpace=wrap;rounded=0;fontFamily=Times New Roman;fontSize=18;fontColor=#393C56;" parent="1" vertex="1">
          <mxGeometry x="21" y="570" width="159" height="33" as="geometry" />
        </mxCell>
        <mxCell id="y-x1a5SyWCCNWOdujIV2-1" value="Handler&lt;Interface&gt;" style="swimlane;fontStyle=1;align=center;verticalAlign=top;childLayout=stackLayout;horizontal=1;startSize=30;horizontalStack=0;resizeParent=1;resizeParentMax=0;resizeLast=0;collapsible=1;marginBottom=0;fontFamily=Times New Roman;fontSize=16;rounded=0;fillColor=#F2CC8F;strokeColor=#E07A5F;fontColor=#393C56;" vertex="1" parent="1">
          <mxGeometry x="330" y="630" width="200" height="90" as="geometry" />
        </mxCell>
        <mxCell id="y-x1a5SyWCCNWOdujIV2-2" value="func setNext(h: Handler)" style="text;strokeColor=none;fillColor=none;align=left;verticalAlign=top;spacingLeft=4;spacingRight=4;overflow=hidden;rotatable=0;points=[[0,0.5],[1,0.5]];portConstraint=eastwest;fontFamily=Times New Roman;fontSize=16;rounded=0;fontColor=#393C56;" vertex="1" parent="y-x1a5SyWCCNWOdujIV2-1">
          <mxGeometry y="30" width="200" height="30" as="geometry" />
        </mxCell>
        <mxCell id="y-x1a5SyWCCNWOdujIV2-3" value="func handler(request)" style="text;strokeColor=none;fillColor=none;align=left;verticalAlign=top;spacingLeft=4;spacingRight=4;overflow=hidden;rotatable=0;points=[[0,0.5],[1,0.5]];portConstraint=eastwest;fontFamily=Times New Roman;fontSize=16;rounded=0;fontColor=#393C56;" vertex="1" parent="y-x1a5SyWCCNWOdujIV2-1">
          <mxGeometry y="60" width="200" height="30" as="geometry" />
        </mxCell>
        <mxCell id="y-x1a5SyWCCNWOdujIV2-46" style="edgeStyle=none;rounded=0;orthogonalLoop=1;jettySize=auto;html=1;entryX=0.505;entryY=0.997;entryDx=0;entryDy=0;entryPerimeter=0;strokeWidth=2;fontFamily=Times New Roman;fontSize=18;fontColor=default;endArrow=block;endFill=0;dashed=1;" edge="1" parent="1" source="y-x1a5SyWCCNWOdujIV2-13" target="y-x1a5SyWCCNWOdujIV2-3">
          <mxGeometry relative="1" as="geometry" />
        </mxCell>
        <mxCell id="y-x1a5SyWCCNWOdujIV2-48" style="edgeStyle=orthogonalEdgeStyle;rounded=0;orthogonalLoop=1;jettySize=auto;html=1;entryX=-0.007;entryY=0.105;entryDx=0;entryDy=0;entryPerimeter=0;strokeWidth=2;fontFamily=Times New Roman;fontSize=18;fontColor=default;endArrow=open;endFill=0;startArrow=diamondThin;startFill=0;" edge="1" parent="1" source="y-x1a5SyWCCNWOdujIV2-13" target="y-x1a5SyWCCNWOdujIV2-2">
          <mxGeometry relative="1" as="geometry">
            <Array as="points">
              <mxPoint x="280" y="840" />
              <mxPoint x="280" y="663" />
            </Array>
          </mxGeometry>
        </mxCell>
        <mxCell id="y-x1a5SyWCCNWOdujIV2-13" value="BaseHandler" style="swimlane;fontStyle=1;align=center;verticalAlign=top;childLayout=stackLayout;horizontal=1;startSize=30;horizontalStack=0;resizeParent=1;resizeParentMax=0;resizeLast=0;collapsible=1;marginBottom=0;fontFamily=Times New Roman;fontSize=16;rounded=0;fillColor=#F2CC8F;strokeColor=#E07A5F;fontColor=#393C56;" vertex="1" parent="1">
          <mxGeometry x="330" y="780" width="200" height="124" as="geometry" />
        </mxCell>
        <mxCell id="y-x1a5SyWCCNWOdujIV2-14" value="next: Handler" style="text;strokeColor=none;fillColor=none;align=left;verticalAlign=top;spacingLeft=4;spacingRight=4;overflow=hidden;rotatable=0;points=[[0,0.5],[1,0.5]];portConstraint=eastwest;fontFamily=Times New Roman;fontSize=16;rounded=0;fontColor=#393C56;" vertex="1" parent="y-x1a5SyWCCNWOdujIV2-13">
          <mxGeometry y="30" width="200" height="26" as="geometry" />
        </mxCell>
        <mxCell id="y-x1a5SyWCCNWOdujIV2-18" value="" style="line;strokeWidth=1;fillColor=none;align=left;verticalAlign=middle;spacingTop=-1;spacingLeft=3;spacingRight=3;rotatable=0;labelPosition=right;points=[];portConstraint=eastwest;strokeColor=#E07A5F;fontFamily=Times New Roman;fontSize=16;rounded=0;fontColor=#393C56;labelBackgroundColor=#F4F1DE;" vertex="1" parent="y-x1a5SyWCCNWOdujIV2-13">
          <mxGeometry y="56" width="200" height="8" as="geometry" />
        </mxCell>
        <mxCell id="y-x1a5SyWCCNWOdujIV2-25" value="func handler(request)" style="text;strokeColor=none;fillColor=none;align=left;verticalAlign=top;spacingLeft=4;spacingRight=4;overflow=hidden;rotatable=0;points=[[0,0.5],[1,0.5]];portConstraint=eastwest;fontFamily=Times New Roman;fontSize=16;rounded=0;fontColor=#393C56;" vertex="1" parent="y-x1a5SyWCCNWOdujIV2-13">
          <mxGeometry y="64" width="200" height="30" as="geometry" />
        </mxCell>
        <mxCell id="y-x1a5SyWCCNWOdujIV2-24" value="func setNext(h: Handler)" style="text;strokeColor=none;fillColor=none;align=left;verticalAlign=top;spacingLeft=4;spacingRight=4;overflow=hidden;rotatable=0;points=[[0,0.5],[1,0.5]];portConstraint=eastwest;fontFamily=Times New Roman;fontSize=16;rounded=0;fontColor=#393C56;" vertex="1" parent="y-x1a5SyWCCNWOdujIV2-13">
          <mxGeometry y="94" width="200" height="30" as="geometry" />
        </mxCell>
        <mxCell id="y-x1a5SyWCCNWOdujIV2-47" style="edgeStyle=none;rounded=0;orthogonalLoop=1;jettySize=auto;html=1;strokeWidth=2;fontFamily=Times New Roman;fontSize=18;fontColor=default;endArrow=block;endFill=0;" edge="1" parent="1" source="y-x1a5SyWCCNWOdujIV2-26" target="y-x1a5SyWCCNWOdujIV2-24">
          <mxGeometry relative="1" as="geometry" />
        </mxCell>
        <mxCell id="y-x1a5SyWCCNWOdujIV2-26" value="ConcreateHandler" style="swimlane;fontStyle=1;align=center;verticalAlign=top;childLayout=stackLayout;horizontal=1;startSize=30;horizontalStack=0;resizeParent=1;resizeParentMax=0;resizeLast=0;collapsible=1;marginBottom=0;fontFamily=Times New Roman;fontSize=16;rounded=0;fillColor=#F2CC8F;strokeColor=#E07A5F;fontColor=#393C56;" vertex="1" parent="1">
          <mxGeometry x="330" y="962" width="200" height="120" as="geometry" />
        </mxCell>
        <mxCell id="y-x1a5SyWCCNWOdujIV2-27" value="next: Handler" style="text;strokeColor=none;fillColor=default;align=left;verticalAlign=top;spacingLeft=4;spacingRight=4;overflow=hidden;rotatable=0;points=[[0,0.5],[1,0.5]];portConstraint=eastwest;fontFamily=Times New Roman;fontSize=16;rounded=0;fontColor=#393C56;" vertex="1" parent="y-x1a5SyWCCNWOdujIV2-26">
          <mxGeometry y="30" width="200" height="30" as="geometry" />
        </mxCell>
        <mxCell id="y-x1a5SyWCCNWOdujIV2-29" value="func handler(request)" style="text;strokeColor=none;fillColor=default;align=left;verticalAlign=top;spacingLeft=4;spacingRight=4;overflow=hidden;rotatable=0;points=[[0,0.5],[1,0.5]];portConstraint=eastwest;fontFamily=Times New Roman;fontSize=16;rounded=0;fontColor=#393C56;" vertex="1" parent="y-x1a5SyWCCNWOdujIV2-26">
          <mxGeometry y="60" width="200" height="30" as="geometry" />
        </mxCell>
        <mxCell id="y-x1a5SyWCCNWOdujIV2-30" value="func setNext(h: Handler)" style="text;strokeColor=none;fillColor=default;align=left;verticalAlign=top;spacingLeft=4;spacingRight=4;overflow=hidden;rotatable=0;points=[[0,0.5],[1,0.5]];portConstraint=eastwest;fontFamily=Times New Roman;fontSize=16;rounded=0;fontColor=#393C56;" vertex="1" parent="y-x1a5SyWCCNWOdujIV2-26">
          <mxGeometry y="90" width="200" height="30" as="geometry" />
        </mxCell>
        <mxCell id="y-x1a5SyWCCNWOdujIV2-44" style="edgeStyle=orthogonalEdgeStyle;rounded=0;orthogonalLoop=1;jettySize=auto;html=1;entryX=1;entryY=0.5;entryDx=0;entryDy=0;fontFamily=Times New Roman;fontSize=18;fontColor=default;endArrow=open;endFill=0;strokeWidth=2;" edge="1" parent="1" source="y-x1a5SyWCCNWOdujIV2-43" target="y-x1a5SyWCCNWOdujIV2-2">
          <mxGeometry relative="1" as="geometry" />
        </mxCell>
        <mxCell id="y-x1a5SyWCCNWOdujIV2-43" value="Client" style="html=1;labelBackgroundColor=none;fontColor=default;fillColor=none;gradientColor=none;fontSize=18;fontFamily=Times New Roman;strokeColor=#F2CC8F;strokeWidth=2;" vertex="1" parent="1">
          <mxGeometry x="600" y="650" width="200" height="50" as="geometry" />
        </mxCell>
        <mxCell id="y-x1a5SyWCCNWOdujIV2-54" value="&lt;font style=&quot;font-size: 14px;&quot;&gt;1. 处理者(Handler)&amp;nbsp;&lt;span style=&quot;font-family: &amp;quot;Heiti SC Light&amp;quot;; text-align: start; background-color: initial;&quot;&gt;声明了所有具体处理者的通用接口。&amp;nbsp;该接口通常仅包含单个方法用于请求处理，&amp;nbsp;但有时其还会包含一个设置链上下个处理者的方法。&lt;/span&gt;&lt;/font&gt;" style="shape=note;size=20;whiteSpace=wrap;html=1;labelBackgroundColor=none;labelBorderColor=default;strokeColor=#F2CC8F;strokeWidth=2;fontFamily=Times New Roman;fontSize=16;fontColor=default;fillColor=none;gradientColor=none;" vertex="1" parent="1">
          <mxGeometry x="40" y="660" width="210" height="110" as="geometry" />
        </mxCell>
      </root>
    </mxGraphModel>
  </diagram>
</mxfile>
